<svg width="100" height="100" viewBox="0 0 100 100" fill="none" xmlns="http://www.w3.org/2000/svg">
<circle cx="50" cy="50" r="50" fill="#602770"/>
<path d="M22.2406 66.1309C22.403 66.2123 22.7784 66.3853 23.367 66.6499C23.9555 66.8942 24.7572 67.1282 25.7719 67.3521C26.7866 67.576 27.8927 67.6879 29.0901 67.6879C31.5863 67.6879 33.7985 67.0977 35.7265 65.9172C37.6748 64.7368 38.6489 63.0984 38.6489 61.002C38.6489 59.6588 38.2329 58.5393 37.4008 57.6438C36.5687 56.728 35.5337 55.9851 34.2957 55.4152C33.078 54.8453 31.3935 54.1635 29.2423 53.3697C26.4213 52.3725 24.1382 51.4362 22.3928 50.5611C20.6678 49.6859 19.1863 48.424 17.9483 46.7754C16.7306 45.1269 16.1218 43.0102 16.1218 40.4254C16.1218 36.2938 17.5221 33.19 20.3228 31.114C23.1437 29.038 26.675 28 30.9166 28C32.662 28 34.5088 28.1934 36.4571 28.5801C38.4054 28.9464 40.0695 29.3331 41.4496 29.7402C42.8296 30.1269 43.7023 30.3813 44.0676 30.5034L43.7632 41.1275H39.7144L37.5834 34.4417C37.4211 34.4009 37.0253 34.289 36.3962 34.1058C35.7671 33.9023 34.9553 33.7191 33.9608 33.5563C32.9664 33.3935 31.9719 33.3121 30.9775 33.3121C28.3189 33.3121 26.2691 33.9125 24.8282 35.1133C23.3873 36.2938 22.6668 37.7185 22.6668 39.3874C22.6668 40.7307 23.0829 41.8602 23.9149 42.7761C24.747 43.6716 25.7821 44.4145 27.02 45.0047C28.2783 45.595 30.0338 46.287 32.2865 47.0807C34.9857 48.0373 37.1978 48.943 38.9229 49.7978C40.6479 50.6526 42.1091 51.8636 43.3065 53.4308C44.5242 54.9776 45.1331 56.9417 45.1331 59.3229C45.1331 62.3148 44.4025 64.8487 42.9412 66.9247C41.48 68.9803 39.5114 70.5068 37.0355 71.5041C34.5798 72.5014 31.8502 73 28.8466 73C26.8983 73 24.9804 72.8168 23.093 72.4505C21.2056 72.0841 19.6328 71.7076 18.3745 71.3209C17.1365 70.9138 16.345 70.6493 16 70.5271V59.5672H20.9925L22.2406 66.1309Z" fill="#FFCD38"/>
<path d="M77.7243 34.5638C77.5417 34.4824 77.0952 34.3501 76.3849 34.1669C75.6949 33.9634 74.7512 33.77 73.5538 33.5868C72.3767 33.4037 71.0981 33.3121 69.7181 33.3121C65.5171 33.3121 62.2801 34.8487 60.0071 37.922C57.7543 40.9749 56.628 45.3813 56.628 51.1411C56.628 56.555 57.8457 60.6153 60.281 63.3223C62.7164 66.0292 65.9737 67.3826 70.0529 67.3826C72.0012 67.3826 73.8988 67.0061 75.7456 66.2531C77.5924 65.5 79.1754 64.6859 80.4946 63.8107C81.834 62.9356 82.5037 62.4573 82.5037 62.3758L85 66.4362C85 66.5583 84.2491 67.1995 82.7473 68.3596C81.2658 69.4993 79.3682 70.5577 77.0546 71.5346C74.741 72.5115 72.194 73 69.4137 73C63.102 73 58.2008 71.1479 54.7101 67.4437C51.2194 63.7395 49.4741 58.4071 49.4741 51.4464C49.4741 46.7042 50.3265 42.5726 52.0312 39.0516C53.736 35.5102 56.1511 32.7829 59.2764 30.8697C62.4221 28.9566 66.1158 28 70.3574 28C72.3868 28 74.4366 28.2341 76.5067 28.7022C78.597 29.1499 80.4337 29.6588 82.0167 30.2286C83.5997 30.7782 84.3912 31.0733 84.3912 31.114L84.0867 41.7381H79.3987L77.7243 34.5638Z" fill="#FFCD38"/>
</svg>
