<?xml version="1.0" encoding="utf-8"?>
<!-- Generator: Adobe Illustrator 24.2.3, SVG Export Plug-In . SVG Version: 6.00 Build 0)  -->
<svg version="1.1" id="Layer_1" xmlns="http://www.w3.org/2000/svg" xmlns:xlink="http://www.w3.org/1999/xlink" x="0px" y="0px"
	 viewBox="0 0 153.8 160.1" style="enable-background:new 0 0 153.8 160.1;" xml:space="preserve">
<style type="text/css">
	.st0{fill:#FAA819;}
	.st1{fill:#FFCC37;}
</style>
<g>
	<g>
		<path class="st0" d="M82.7,1.6c-32.7,0-59.2,26.5-59.2,59.2c0,32.7,26.5,59.2,59.2,59.2c32.7,0,59.2-26.5,59.2-59.2
			C141.9,28.1,115.4,1.6,82.7,1.6z M82.7,102C60,102,41.5,83.6,41.5,60.8S60,19.5,82.7,19.5S124,38,124,60.8S105.5,102,82.7,102z"/>
		<path class="st1" d="M83.1,67.3c-0.5,0-1.1,0-1.6,0c-0.9,0-1.5,0.7-1.5,1.6v14.7c0,0.9,0.7,1.6,1.6,1.6c0.5,0,1,0,1.5,0
			c20.1,0,36.8,14.4,40.5,33.4c0.1,0.8,0.8,1.3,1.6,1.3h14.9c1,0,1.7-0.9,1.6-1.8C137.7,89.4,113,67.3,83.1,67.3z"/>
	</g>
	<path class="st0" d="M31.3,125.1c0.7,0,1.3,0.4,1.7,1.1c4.3,8.6,13.1,14.4,23.3,14.4c0.6,0,70.4,0,82.7-0.1c1,0,1.8,0.8,1.8,1.8
		v14.3c0,1-0.8,1.8-1.8,1.8c-12.3,0-82.2,0-82.7,0c-20.5,0-38.6-12.3-44.3-31c-0.4-1.2,0.5-2.4,1.8-2.4H31.3z"/>
</g>
</svg>
